<mxfile host="app.diagrams.net" modified="2024-02-26T16:34:03.655Z" agent="Mozilla/5.0 (Windows NT 10.0; Win64; x64; rv:123.0) Gecko/20100101 Firefox/123.0" etag="8C_et67gpLqL0uJXLO2g" version="23.1.6" type="device">
  <diagram id="prtHgNgQTEPvFCAcTncT" name="Page-1">
    <mxGraphModel dx="1687" dy="887" grid="1" gridSize="10" guides="1" tooltips="1" connect="1" arrows="1" fold="0" page="1" pageScale="1" pageWidth="827" pageHeight="1169" math="0" shadow="0">
      <root>
        <mxCell id="0" />
        <mxCell id="1" parent="0" />
        <mxCell id="H3Hm-fYdWK9MxW-J1_Vh-13" value="" style="swimlane;childLayout=stackLayout;resizeParent=1;resizeParentMax=0;startSize=1;html=1;verticalAlign=middle;fillColor=#dae8fc;strokeColor=#6c8ebf;fontSize=14;" parent="1" vertex="1">
          <mxGeometry x="20" y="40" width="890" height="820" as="geometry" />
        </mxCell>
        <mxCell id="tqxaefpeHdTPWrNJAbxj-1" value="" style="swimlane;startSize=39;html=1;fontSize=14;fontStyle=1;strokeWidth=2;fillColor=#f5f5f5;fontColor=#333333;strokeColor=#666666;" parent="H3Hm-fYdWK9MxW-J1_Vh-13" vertex="1">
          <mxGeometry y="1" width="120" height="819" as="geometry" />
        </mxCell>
        <mxCell id="tqxaefpeHdTPWrNJAbxj-2" value="&lt;font style=&quot;font-size: 14px;&quot;&gt;Auth.-&lt;br&gt;Server&lt;/font&gt;" style="verticalAlign=top;align=left;spacingTop=8;spacingLeft=2;spacingRight=12;shape=cube;size=10;direction=south;fontStyle=0;html=1;rounded=0;shadow=0;comic=0;labelBackgroundColor=none;strokeWidth=1;fontFamily=Verdana;fontSize=12;strokeColor=#666666;" parent="tqxaefpeHdTPWrNJAbxj-1" vertex="1">
          <mxGeometry x="10" y="138.5" width="90" height="71.5" as="geometry" />
        </mxCell>
        <mxCell id="BxZqRP25bFnfQ59wk7_Y-1" value="&lt;font style=&quot;font-size: 14px;&quot;&gt;REST-API&lt;/font&gt;&lt;br style=&quot;font-size: 14px;&quot;&gt;&lt;font style=&quot;font-size: 14px;&quot;&gt;Telematic&lt;br style=&quot;font-size: 14px;&quot;&gt;data&lt;/font&gt;" style="verticalAlign=top;align=left;spacingTop=8;spacingLeft=2;spacingRight=12;shape=cube;size=10;direction=south;fontStyle=0;html=1;rounded=0;shadow=0;comic=0;labelBackgroundColor=none;strokeWidth=1;fontFamily=Verdana;fontSize=14;strokeColor=#666666;" parent="tqxaefpeHdTPWrNJAbxj-1" vertex="1">
          <mxGeometry x="10" y="403.25" width="90" height="71.5" as="geometry" />
        </mxCell>
        <mxCell id="n1FhphHMJy-kgxUUgLVC-2" value="&lt;font style=&quot;font-size: 14px;&quot;&gt;REST-API&lt;/font&gt;&lt;br style=&quot;font-size: 14px;&quot;&gt;&lt;font style=&quot;font-size: 14px;&quot;&gt;Google&lt;br style=&quot;font-size: 14px;&quot;&gt;Geocoding&lt;/font&gt;" style="verticalAlign=top;align=left;spacingTop=8;spacingLeft=2;spacingRight=12;shape=cube;size=10;direction=south;fontStyle=0;html=1;rounded=0;shadow=0;comic=0;labelBackgroundColor=none;strokeWidth=1;fontFamily=Verdana;fontSize=14;strokeColor=#666666;" vertex="1" parent="tqxaefpeHdTPWrNJAbxj-1">
          <mxGeometry x="10" y="643.25" width="90" height="71.5" as="geometry" />
        </mxCell>
        <mxCell id="H3Hm-fYdWK9MxW-J1_Vh-87" style="edgeStyle=elbowEdgeStyle;rounded=0;orthogonalLoop=1;jettySize=auto;html=1;fontSize=14;strokeWidth=2;elbow=vertical;entryX=0.5;entryY=0;entryDx=0;entryDy=0;entryPerimeter=0;" parent="H3Hm-fYdWK9MxW-J1_Vh-13" source="H3Hm-fYdWK9MxW-J1_Vh-31" target="H3Hm-fYdWK9MxW-J1_Vh-85" edge="1">
          <mxGeometry relative="1" as="geometry">
            <Array as="points">
              <mxPoint x="640" y="330" />
            </Array>
            <mxPoint x="559.5900000000006" y="330" as="sourcePoint" />
            <mxPoint x="779.75" y="347.9999999999998" as="targetPoint" />
          </mxGeometry>
        </mxCell>
        <mxCell id="H3Hm-fYdWK9MxW-J1_Vh-37" style="edgeStyle=orthogonalEdgeStyle;rounded=0;orthogonalLoop=1;jettySize=auto;html=1;fontSize=14;strokeWidth=2;" parent="H3Hm-fYdWK9MxW-J1_Vh-13" source="H3Hm-fYdWK9MxW-J1_Vh-35" target="H3Hm-fYdWK9MxW-J1_Vh-6" edge="1">
          <mxGeometry relative="1" as="geometry" />
        </mxCell>
        <mxCell id="H3Hm-fYdWK9MxW-J1_Vh-112" value="" style="endArrow=none;html=1;rounded=0;strokeWidth=2;fontSize=14;edgeStyle=elbowEdgeStyle;exitX=1;exitY=0.5;exitDx=0;exitDy=0;exitPerimeter=0;endFill=0;" parent="H3Hm-fYdWK9MxW-J1_Vh-13" source="H3Hm-fYdWK9MxW-J1_Vh-85" edge="1">
          <mxGeometry relative="1" as="geometry">
            <mxPoint x="815" y="420" as="sourcePoint" />
            <mxPoint x="500" y="750" as="targetPoint" />
            <Array as="points">
              <mxPoint x="870" y="650" />
            </Array>
          </mxGeometry>
        </mxCell>
        <mxCell id="H3Hm-fYdWK9MxW-J1_Vh-113" value="false" style="edgeLabel;resizable=0;html=1;align=center;verticalAlign=middle;fontSize=14;" parent="H3Hm-fYdWK9MxW-J1_Vh-112" connectable="0" vertex="1">
          <mxGeometry relative="1" as="geometry">
            <mxPoint x="-38" y="-359" as="offset" />
          </mxGeometry>
        </mxCell>
        <mxCell id="H3Hm-fYdWK9MxW-J1_Vh-34" value="&lt;font style=&quot;font-size: 15px;&quot;&gt;Azure-Data-Factory&lt;br&gt;(ADF)&lt;br&gt;&lt;/font&gt;" style="swimlane;startSize=39;html=1;fillColor=#0050ef;strokeColor=#001DBC;fontSize=14;fontStyle=1;strokeWidth=2;fontColor=#ffffff;" parent="H3Hm-fYdWK9MxW-J1_Vh-13" vertex="1">
          <mxGeometry x="120" y="1" width="170" height="819" as="geometry" />
        </mxCell>
        <mxCell id="H3Hm-fYdWK9MxW-J1_Vh-35" value="Trigger" style="strokeWidth=2;html=1;shape=mxgraph.flowchart.terminator;whiteSpace=wrap;fontSize=14;" parent="H3Hm-fYdWK9MxW-J1_Vh-34" vertex="1">
          <mxGeometry x="32.5" y="49" width="80" height="30" as="geometry" />
        </mxCell>
        <mxCell id="H3Hm-fYdWK9MxW-J1_Vh-39" value="Azure&lt;br style=&quot;font-size: 14px;&quot;&gt;key vault" style="strokeWidth=2;html=1;shape=mxgraph.flowchart.stored_data;whiteSpace=wrap;fontSize=14;" parent="H3Hm-fYdWK9MxW-J1_Vh-34" vertex="1">
          <mxGeometry x="17.5" y="90" width="110" height="40" as="geometry" />
        </mxCell>
        <mxCell id="H3Hm-fYdWK9MxW-J1_Vh-14" value="&lt;font style=&quot;font-size: 15px;&quot;&gt;&lt;b&gt;ADF &lt;/b&gt;&lt;font style=&quot;font-size: 15px;&quot;&gt;&lt;b&gt;Pipeline&lt;br&gt;&lt;/b&gt;&lt;/font&gt;&lt;/font&gt;&lt;font style=&quot;font-size: 16px; font-weight: normal;&quot;&gt;TelematicDataPipeline&lt;/font&gt;" style="swimlane;startSize=39;html=1;fillColor=#1995D1;strokeColor=#006EAF;fontSize=14;fontStyle=0;strokeWidth=2;fontColor=#ffffff;" parent="H3Hm-fYdWK9MxW-J1_Vh-13" vertex="1">
          <mxGeometry x="290" y="1" width="340" height="819" as="geometry" />
        </mxCell>
        <mxCell id="H3Hm-fYdWK9MxW-J1_Vh-6" value="get client secret" style="rounded=1;whiteSpace=wrap;html=1;absoluteArcSize=1;arcSize=14;strokeWidth=2;fontSize=14;" parent="H3Hm-fYdWK9MxW-J1_Vh-14" vertex="1">
          <mxGeometry x="139.53000000000006" y="90" width="140" height="40" as="geometry" />
        </mxCell>
        <mxCell id="H3Hm-fYdWK9MxW-J1_Vh-7" value="authentication /&lt;br&gt;authorization" style="rounded=1;whiteSpace=wrap;html=1;absoluteArcSize=1;arcSize=14;strokeWidth=2;fontSize=14;" parent="H3Hm-fYdWK9MxW-J1_Vh-14" vertex="1">
          <mxGeometry x="139.5299999999996" y="159.00000000000003" width="140" height="40" as="geometry" />
        </mxCell>
        <mxCell id="H3Hm-fYdWK9MxW-J1_Vh-28" value="Equipment&lt;br&gt;Identification" style="verticalLabelPosition=middle;verticalAlign=middle;html=1;shape=process;whiteSpace=wrap;rounded=1;size=0.07428571428571494;arcSize=6;labelPosition=center;align=center;fontSize=14;strokeWidth=2;" parent="H3Hm-fYdWK9MxW-J1_Vh-14" vertex="1">
          <mxGeometry x="139.53" y="229" width="140" height="40" as="geometry" />
        </mxCell>
        <mxCell id="H3Hm-fYdWK9MxW-J1_Vh-31" value="&lt;div style=&quot;font-size: 14px;&quot;&gt;&lt;font size=&quot;1&quot;&gt;&lt;b style=&quot;font-size: 15px;&quot;&gt;ForEach&lt;/b&gt;&lt;/font&gt;&lt;/div&gt;&lt;div style=&quot;font-size: 14px;&quot;&gt;item in Equipment[ ]&lt;/div&gt;" style="rounded=1;whiteSpace=wrap;html=1;absoluteArcSize=1;arcSize=14;strokeWidth=2;fontSize=14;fillColor=#FFFFFF;strokeColor=#10739E;verticalAlign=middle;" parent="H3Hm-fYdWK9MxW-J1_Vh-14" vertex="1">
          <mxGeometry x="129.77" y="299" width="159.53" height="51" as="geometry" />
        </mxCell>
        <mxCell id="H3Hm-fYdWK9MxW-J1_Vh-43" value="" style="endArrow=classic;html=1;rounded=0;horizontal=1;fontSize=14;strokeWidth=2;" parent="H3Hm-fYdWK9MxW-J1_Vh-14" source="H3Hm-fYdWK9MxW-J1_Vh-6" target="H3Hm-fYdWK9MxW-J1_Vh-7" edge="1">
          <mxGeometry relative="1" as="geometry">
            <mxPoint x="199.53999999999954" y="194" as="sourcePoint" />
            <mxPoint x="129.53999999999962" y="324" as="targetPoint" />
          </mxGeometry>
        </mxCell>
        <mxCell id="H3Hm-fYdWK9MxW-J1_Vh-44" value="JSON" style="edgeLabel;resizable=0;html=1;align=center;verticalAlign=middle;fontSize=12;" parent="H3Hm-fYdWK9MxW-J1_Vh-43" connectable="0" vertex="1">
          <mxGeometry relative="1" as="geometry">
            <mxPoint x="-30" y="-2" as="offset" />
          </mxGeometry>
        </mxCell>
        <mxCell id="H3Hm-fYdWK9MxW-J1_Vh-111" value="Ende" style="strokeWidth=2;html=1;shape=mxgraph.flowchart.terminator;whiteSpace=wrap;fontSize=14;" parent="H3Hm-fYdWK9MxW-J1_Vh-14" vertex="1">
          <mxGeometry x="169.53" y="779" width="80" height="30" as="geometry" />
        </mxCell>
        <mxCell id="p-WAUdw4-dwN-y8-dtYH-6" style="rounded=0;orthogonalLoop=1;jettySize=auto;html=1;exitX=0.5;exitY=1;exitDx=0;exitDy=0;entryX=0.5;entryY=0;entryDx=0;entryDy=0;strokeWidth=2;entryPerimeter=0;" parent="H3Hm-fYdWK9MxW-J1_Vh-14" target="H3Hm-fYdWK9MxW-J1_Vh-111" edge="1">
          <mxGeometry relative="1" as="geometry">
            <mxPoint x="209.51999999999998" y="749" as="sourcePoint" />
            <mxPoint x="451.07" y="1210" as="targetPoint" />
          </mxGeometry>
        </mxCell>
        <mxCell id="H3Hm-fYdWK9MxW-J1_Vh-46" value="" style="endArrow=classic;html=1;rounded=0;horizontal=1;fontSize=14;strokeWidth=2;" parent="H3Hm-fYdWK9MxW-J1_Vh-14" source="H3Hm-fYdWK9MxW-J1_Vh-7" target="H3Hm-fYdWK9MxW-J1_Vh-28" edge="1">
          <mxGeometry relative="1" as="geometry">
            <mxPoint x="253.45000000000002" y="284" as="sourcePoint" />
            <mxPoint x="209.19999999999996" y="389" as="targetPoint" />
          </mxGeometry>
        </mxCell>
        <mxCell id="H3Hm-fYdWK9MxW-J1_Vh-47" value="JSON" style="edgeLabel;resizable=0;html=1;align=center;verticalAlign=middle;fontSize=12;" parent="H3Hm-fYdWK9MxW-J1_Vh-46" connectable="0" vertex="1">
          <mxGeometry relative="1" as="geometry">
            <mxPoint x="-30" y="-2" as="offset" />
          </mxGeometry>
        </mxCell>
        <mxCell id="iO_TFe9acQow6ScYWYWS-5" value="" style="endArrow=classic;html=1;rounded=0;fontSize=14;strokeWidth=2;" parent="H3Hm-fYdWK9MxW-J1_Vh-14" source="H3Hm-fYdWK9MxW-J1_Vh-28" target="H3Hm-fYdWK9MxW-J1_Vh-31" edge="1">
          <mxGeometry relative="1" as="geometry">
            <mxPoint x="209.5399999999999" y="301" as="sourcePoint" />
            <mxPoint x="209.5300000000006" y="318.9999999999998" as="targetPoint" />
          </mxGeometry>
        </mxCell>
        <mxCell id="iO_TFe9acQow6ScYWYWS-6" value="JSON" style="edgeLabel;resizable=0;html=1;align=center;verticalAlign=middle;fontSize=12;" parent="iO_TFe9acQow6ScYWYWS-5" connectable="0" vertex="1">
          <mxGeometry relative="1" as="geometry">
            <mxPoint x="-30" y="-2" as="offset" />
          </mxGeometry>
        </mxCell>
        <mxCell id="iO_TFe9acQow6ScYWYWS-7" value="&lt;font style=&quot;font-size: 13px;&quot;&gt;Equipment[ ]&lt;/font&gt;" style="edgeLabel;resizable=0;html=1;align=left;verticalAlign=bottom;fontSize=13;" parent="iO_TFe9acQow6ScYWYWS-5" connectable="0" vertex="1">
          <mxGeometry x="-1" relative="1" as="geometry">
            <mxPoint x="-138" y="23" as="offset" />
          </mxGeometry>
        </mxCell>
        <mxCell id="EWkq4xdjGCLIvTMC4SDp-3" style="rounded=0;orthogonalLoop=1;jettySize=auto;html=1;endArrow=none;endFill=0;" parent="H3Hm-fYdWK9MxW-J1_Vh-14" source="EWkq4xdjGCLIvTMC4SDp-2" edge="1">
          <mxGeometry relative="1" as="geometry">
            <mxPoint x="328.4000000000001" y="294" as="sourcePoint" />
            <mxPoint x="300.4" y="249" as="targetPoint" />
            <Array as="points">
              <mxPoint x="300.4" y="286" />
            </Array>
          </mxGeometry>
        </mxCell>
        <mxCell id="ysZ0GRtqqzW0Unu9FuuP-2" style="rounded=0;orthogonalLoop=1;jettySize=auto;html=1;endArrow=none;endFill=0;" parent="H3Hm-fYdWK9MxW-J1_Vh-14" source="ysZ0GRtqqzW0Unu9FuuP-1" edge="1">
          <mxGeometry relative="1" as="geometry">
            <mxPoint x="328.4000000000001" y="254" as="sourcePoint" />
            <mxPoint x="300" y="214" as="targetPoint" />
            <Array as="points">
              <mxPoint x="300.4" y="249" />
            </Array>
          </mxGeometry>
        </mxCell>
        <mxCell id="BxZqRP25bFnfQ59wk7_Y-5" value="" style="endArrow=none;html=1;rounded=0;edgeStyle=elbowEdgeStyle;dashed=1;endFill=0;" parent="H3Hm-fYdWK9MxW-J1_Vh-14" source="H3Hm-fYdWK9MxW-J1_Vh-94" edge="1">
          <mxGeometry width="50" height="50" relative="1" as="geometry">
            <mxPoint x="380" y="559" as="sourcePoint" />
            <mxPoint x="-80" y="499" as="targetPoint" />
            <Array as="points">
              <mxPoint x="-80" y="559" />
            </Array>
          </mxGeometry>
        </mxCell>
        <mxCell id="BxZqRP25bFnfQ59wk7_Y-6" value="" style="endArrow=none;html=1;rounded=0;edgeStyle=elbowEdgeStyle;dashed=1;endFill=0;" parent="H3Hm-fYdWK9MxW-J1_Vh-14" source="H3Hm-fYdWK9MxW-J1_Vh-95" edge="1">
          <mxGeometry width="50" height="50" relative="1" as="geometry">
            <mxPoint x="380" y="619" as="sourcePoint" />
            <mxPoint x="-80" y="559" as="targetPoint" />
            <Array as="points">
              <mxPoint x="-80" y="619" />
            </Array>
          </mxGeometry>
        </mxCell>
        <mxCell id="H3Hm-fYdWK9MxW-J1_Vh-61" value="&lt;font style=&quot;font-size: 15px;&quot;&gt;&lt;b&gt;ForEach&lt;/b&gt; activities&lt;/font&gt;" style="swimlane;startSize=39;html=1;fillColor=#8EAFBF;strokeColor=#10739e;fontSize=14;fontStyle=0;strokeWidth=2;fontColor=#FFFFFF;" parent="H3Hm-fYdWK9MxW-J1_Vh-13" vertex="1">
          <mxGeometry x="630" y="1" width="260" height="819" as="geometry" />
        </mxCell>
        <mxCell id="H3Hm-fYdWK9MxW-J1_Vh-100" style="rounded=0;orthogonalLoop=1;jettySize=auto;html=1;fontSize=14;strokeWidth=2;" parent="H3Hm-fYdWK9MxW-J1_Vh-61" source="H3Hm-fYdWK9MxW-J1_Vh-84" target="H3Hm-fYdWK9MxW-J1_Vh-98" edge="1">
          <mxGeometry relative="1" as="geometry" />
        </mxCell>
        <mxCell id="H3Hm-fYdWK9MxW-J1_Vh-84" value="FuelUsed" style="verticalLabelPosition=middle;verticalAlign=middle;html=1;shape=process;whiteSpace=wrap;rounded=1;size=0.06486486486486487;arcSize=6;labelPosition=center;align=center;fontSize=14;strokeWidth=2;" parent="H3Hm-fYdWK9MxW-J1_Vh-61" vertex="1">
          <mxGeometry x="40" y="419" width="180" height="40" as="geometry" />
        </mxCell>
        <mxCell id="H3Hm-fYdWK9MxW-J1_Vh-85" value="next item ?" style="strokeWidth=2;html=1;shape=mxgraph.flowchart.decision;whiteSpace=wrap;verticalAlign=middle;fontSize=14;" parent="H3Hm-fYdWK9MxW-J1_Vh-61" vertex="1">
          <mxGeometry x="75" y="349" width="110" height="46" as="geometry" />
        </mxCell>
        <mxCell id="H3Hm-fYdWK9MxW-J1_Vh-102" style="rounded=0;orthogonalLoop=1;jettySize=auto;html=1;fontSize=14;strokeWidth=2;" parent="H3Hm-fYdWK9MxW-J1_Vh-61" source="H3Hm-fYdWK9MxW-J1_Vh-94" target="H3Hm-fYdWK9MxW-J1_Vh-95" edge="1">
          <mxGeometry relative="1" as="geometry">
            <mxPoint x="130" y="721" as="sourcePoint" />
          </mxGeometry>
        </mxCell>
        <mxCell id="H3Hm-fYdWK9MxW-J1_Vh-94" value="EngineCondition" style="verticalLabelPosition=middle;verticalAlign=middle;html=1;shape=process;whiteSpace=wrap;rounded=1;size=0.06486486486486487;arcSize=6;labelPosition=center;align=center;fontSize=14;strokeWidth=2;strokeColor=#000000;" parent="H3Hm-fYdWK9MxW-J1_Vh-61" vertex="1">
          <mxGeometry x="40" y="539" width="180" height="40" as="geometry" />
        </mxCell>
        <mxCell id="H3Hm-fYdWK9MxW-J1_Vh-103" style="rounded=0;orthogonalLoop=1;jettySize=auto;html=1;fontSize=14;strokeWidth=2;" parent="H3Hm-fYdWK9MxW-J1_Vh-61" source="H3Hm-fYdWK9MxW-J1_Vh-95" target="H3Hm-fYdWK9MxW-J1_Vh-96" edge="1">
          <mxGeometry relative="1" as="geometry" />
        </mxCell>
        <mxCell id="H3Hm-fYdWK9MxW-J1_Vh-95" value="Location" style="verticalLabelPosition=middle;verticalAlign=middle;html=1;shape=process;whiteSpace=wrap;rounded=1;size=0.06486486486486487;arcSize=6;labelPosition=center;align=center;fontSize=14;strokeWidth=2;" parent="H3Hm-fYdWK9MxW-J1_Vh-61" vertex="1">
          <mxGeometry x="40" y="599" width="180" height="40" as="geometry" />
        </mxCell>
        <mxCell id="H3Hm-fYdWK9MxW-J1_Vh-96" value="LocationData" style="verticalLabelPosition=middle;verticalAlign=middle;html=1;shape=process;whiteSpace=wrap;rounded=1;size=0.06486486486486487;arcSize=6;labelPosition=center;align=center;fontSize=14;strokeWidth=2;" parent="H3Hm-fYdWK9MxW-J1_Vh-61" vertex="1">
          <mxGeometry x="40" y="659" width="180" height="40" as="geometry" />
        </mxCell>
        <mxCell id="H3Hm-fYdWK9MxW-J1_Vh-101" style="rounded=0;orthogonalLoop=1;jettySize=auto;html=1;fontSize=14;strokeWidth=2;" parent="H3Hm-fYdWK9MxW-J1_Vh-61" source="H3Hm-fYdWK9MxW-J1_Vh-98" target="H3Hm-fYdWK9MxW-J1_Vh-94" edge="1">
          <mxGeometry relative="1" as="geometry" />
        </mxCell>
        <mxCell id="H3Hm-fYdWK9MxW-J1_Vh-98" value="OperatingHours" style="verticalLabelPosition=middle;verticalAlign=middle;html=1;shape=process;whiteSpace=wrap;rounded=1;size=0.06486486486486487;arcSize=6;labelPosition=center;align=center;fontSize=14;strokeWidth=2;" parent="H3Hm-fYdWK9MxW-J1_Vh-61" vertex="1">
          <mxGeometry x="40" y="479" width="180" height="40" as="geometry" />
        </mxCell>
        <mxCell id="H3Hm-fYdWK9MxW-J1_Vh-105" value="" style="endArrow=classic;html=1;rounded=0;fontSize=14;strokeWidth=2;exitX=0.5;exitY=1;exitDx=0;exitDy=0;exitPerimeter=0;" parent="H3Hm-fYdWK9MxW-J1_Vh-61" source="H3Hm-fYdWK9MxW-J1_Vh-85" target="H3Hm-fYdWK9MxW-J1_Vh-84" edge="1">
          <mxGeometry relative="1" as="geometry">
            <mxPoint x="141" y="409" as="sourcePoint" />
            <mxPoint x="190" y="440" as="targetPoint" />
            <Array as="points" />
          </mxGeometry>
        </mxCell>
        <mxCell id="H3Hm-fYdWK9MxW-J1_Vh-106" value="&lt;div style=&quot;font-size: 14px;&quot;&gt;true&lt;/div&gt;" style="edgeLabel;resizable=0;html=1;align=center;verticalAlign=middle;fontSize=14;" parent="H3Hm-fYdWK9MxW-J1_Vh-105" connectable="0" vertex="1">
          <mxGeometry relative="1" as="geometry">
            <mxPoint x="20" y="-6" as="offset" />
          </mxGeometry>
        </mxCell>
        <mxCell id="H3Hm-fYdWK9MxW-J1_Vh-109" value="" style="endArrow=classic;html=1;rounded=0;strokeWidth=2;fontSize=14;" parent="H3Hm-fYdWK9MxW-J1_Vh-61" source="H3Hm-fYdWK9MxW-J1_Vh-96" target="H3Hm-fYdWK9MxW-J1_Vh-85" edge="1">
          <mxGeometry relative="1" as="geometry">
            <mxPoint x="130" y="879" as="sourcePoint" />
            <mxPoint x="-138" y="594.9999999999999" as="targetPoint" />
            <Array as="points">
              <mxPoint x="130" y="729" />
              <mxPoint x="20" y="729" />
              <mxPoint x="20" y="372" />
            </Array>
          </mxGeometry>
        </mxCell>
        <mxCell id="H3Hm-fYdWK9MxW-J1_Vh-110" value="&amp;nbsp;iterate&amp;nbsp; " style="edgeLabel;resizable=0;html=1;align=center;verticalAlign=middle;rotation=0;fontSize=14;" parent="H3Hm-fYdWK9MxW-J1_Vh-109" connectable="0" vertex="1">
          <mxGeometry relative="1" as="geometry">
            <mxPoint x="13" y="-234" as="offset" />
          </mxGeometry>
        </mxCell>
        <mxCell id="EWkq4xdjGCLIvTMC4SDp-7" style="rounded=0;orthogonalLoop=1;jettySize=auto;html=1;endArrow=classic;endFill=1;" parent="H3Hm-fYdWK9MxW-J1_Vh-61" edge="1">
          <mxGeometry relative="1" as="geometry">
            <mxPoint x="-1.9650000000001455" y="214" as="sourcePoint" />
            <mxPoint x="-110" y="214" as="targetPoint" />
            <Array as="points" />
          </mxGeometry>
        </mxCell>
        <mxCell id="EWkq4xdjGCLIvTMC4SDp-2" value="&lt;font style=&quot;font-size: 13px;&quot;&gt;TriggerDateTime&lt;/font&gt;" style="shape=parallelogram;html=1;strokeWidth=1;perimeter=parallelogramPerimeter;whiteSpace=wrap;rounded=1;arcSize=12;size=0.23;fontSize=13;" parent="H3Hm-fYdWK9MxW-J1_Vh-61" vertex="1">
          <mxGeometry x="-20" y="272" width="200" height="28" as="geometry" />
        </mxCell>
        <mxCell id="ysZ0GRtqqzW0Unu9FuuP-1" value="&lt;font style=&quot;font-size: 13px;&quot;&gt;SQLConnectionString&lt;/font&gt;" style="shape=parallelogram;html=1;strokeWidth=1;perimeter=parallelogramPerimeter;whiteSpace=wrap;rounded=1;arcSize=12;size=0.23;fontSize=13;fillColor=default;" parent="H3Hm-fYdWK9MxW-J1_Vh-61" vertex="1">
          <mxGeometry x="-20" y="235" width="200" height="28" as="geometry" />
        </mxCell>
        <mxCell id="EWkq4xdjGCLIvTMC4SDp-4" value="&lt;font style=&quot;font-size: 13px; background-color: rgb(255, 255, 255);&quot;&gt;APIConnectionURL&lt;/font&gt;" style="shape=parallelogram;html=1;strokeWidth=1;perimeter=parallelogramPerimeter;whiteSpace=wrap;rounded=1;arcSize=12;size=0.23;fontSize=13;fillColor=#FFFFFF;fillStyle=solid;backgroundOutline=0;" parent="H3Hm-fYdWK9MxW-J1_Vh-61" vertex="1">
          <mxGeometry x="-20" y="199" width="200" height="28" as="geometry" />
        </mxCell>
        <mxCell id="EWkq4xdjGCLIvTMC4SDp-13" value="" style="endArrow=none;html=1;rounded=0;exitX=0;exitY=0.75;exitDx=0;exitDy=0;fontSize=14;startArrow=classic;startFill=1;endFill=0;edgeStyle=elbowEdgeStyle;elbow=vertical;" parent="H3Hm-fYdWK9MxW-J1_Vh-13" source="H3Hm-fYdWK9MxW-J1_Vh-6" target="H3Hm-fYdWK9MxW-J1_Vh-39" edge="1">
          <mxGeometry relative="1" as="geometry">
            <mxPoint x="513.0900000000001" y="140" as="sourcePoint" />
            <mxPoint x="180" y="138" as="targetPoint" />
          </mxGeometry>
        </mxCell>
        <mxCell id="EWkq4xdjGCLIvTMC4SDp-14" value="client secret" style="edgeLabel;resizable=0;html=1;align=center;verticalAlign=middle;fontSize=14;" parent="EWkq4xdjGCLIvTMC4SDp-13" connectable="0" vertex="1">
          <mxGeometry relative="1" as="geometry">
            <mxPoint x="16" y="-1" as="offset" />
          </mxGeometry>
        </mxCell>
        <mxCell id="CznZXga-nZRQhFEKAhzm-3" value="" style="endArrow=none;html=1;rounded=0;exitX=0;exitY=0.75;exitDx=0;exitDy=0;fontSize=14;dashed=1;elbow=vertical;strokeWidth=1;endFill=0;startArrow=classic;startFill=1;strokeColor=#000000;edgeStyle=elbowEdgeStyle;" parent="H3Hm-fYdWK9MxW-J1_Vh-13" source="H3Hm-fYdWK9MxW-J1_Vh-7" target="tqxaefpeHdTPWrNJAbxj-2" edge="1">
          <mxGeometry relative="1" as="geometry">
            <mxPoint x="530" y="230.18" as="sourcePoint" />
            <mxPoint x="200" y="240" as="targetPoint" />
          </mxGeometry>
        </mxCell>
        <mxCell id="CznZXga-nZRQhFEKAhzm-4" value="&lt;span&gt;&lt;font style=&quot;font-size: 14px;&quot;&gt;access token&lt;/font&gt;&lt;/span&gt;" style="edgeLabel;resizable=0;html=1;align=center;verticalAlign=middle;fontSize=14;fontStyle=0" parent="CznZXga-nZRQhFEKAhzm-3" connectable="0" vertex="1">
          <mxGeometry relative="1" as="geometry">
            <mxPoint x="91" y="-1" as="offset" />
          </mxGeometry>
        </mxCell>
        <mxCell id="H3Hm-fYdWK9MxW-J1_Vh-40" value="" style="endArrow=classic;html=1;rounded=0;fontSize=14;startArrow=none;startFill=0;endFill=1;exitX=0;exitY=0.25;exitDx=0;exitDy=0;edgeStyle=elbowEdgeStyle;elbow=vertical;" parent="H3Hm-fYdWK9MxW-J1_Vh-13" source="H3Hm-fYdWK9MxW-J1_Vh-6" target="H3Hm-fYdWK9MxW-J1_Vh-39" edge="1">
          <mxGeometry relative="1" as="geometry">
            <mxPoint x="430" y="110" as="sourcePoint" />
            <mxPoint x="180" y="113" as="targetPoint" />
          </mxGeometry>
        </mxCell>
        <mxCell id="H3Hm-fYdWK9MxW-J1_Vh-41" value="client ID" style="edgeLabel;resizable=0;html=1;align=center;verticalAlign=middle;fontSize=14;" parent="H3Hm-fYdWK9MxW-J1_Vh-40" connectable="0" vertex="1">
          <mxGeometry relative="1" as="geometry">
            <mxPoint x="33" y="-3" as="offset" />
          </mxGeometry>
        </mxCell>
        <mxCell id="H3Hm-fYdWK9MxW-J1_Vh-53" value="" style="endArrow=classic;html=1;rounded=0;fontSize=14;dashed=1;elbow=vertical;strokeWidth=1;strokeColor=#000000;edgeStyle=elbowEdgeStyle;exitX=0;exitY=0.25;exitDx=0;exitDy=0;" parent="H3Hm-fYdWK9MxW-J1_Vh-13" source="H3Hm-fYdWK9MxW-J1_Vh-7" target="tqxaefpeHdTPWrNJAbxj-2" edge="1">
          <mxGeometry relative="1" as="geometry">
            <mxPoint x="455" y="252" as="sourcePoint" />
            <mxPoint x="180" y="180" as="targetPoint" />
          </mxGeometry>
        </mxCell>
        <mxCell id="H3Hm-fYdWK9MxW-J1_Vh-54" value="client ID + client Secret" style="edgeLabel;resizable=0;html=1;align=center;verticalAlign=middle;fontSize=14;labelBackgroundColor=#FFFFFF;" parent="H3Hm-fYdWK9MxW-J1_Vh-53" connectable="0" vertex="1">
          <mxGeometry relative="1" as="geometry">
            <mxPoint x="60" y="-2" as="offset" />
          </mxGeometry>
        </mxCell>
        <mxCell id="BxZqRP25bFnfQ59wk7_Y-2" value="" style="endArrow=classic;html=1;rounded=0;edgeStyle=elbowEdgeStyle;dashed=1;" parent="H3Hm-fYdWK9MxW-J1_Vh-13" source="H3Hm-fYdWK9MxW-J1_Vh-28" target="BxZqRP25bFnfQ59wk7_Y-1" edge="1">
          <mxGeometry width="50" height="50" relative="1" as="geometry">
            <mxPoint x="182.5" y="410" as="sourcePoint" />
            <mxPoint x="232.5" y="360" as="targetPoint" />
            <Array as="points">
              <mxPoint x="210" y="380" />
            </Array>
          </mxGeometry>
        </mxCell>
        <mxCell id="BxZqRP25bFnfQ59wk7_Y-3" value="" style="endArrow=none;html=1;rounded=0;dashed=1;endFill=0;" parent="H3Hm-fYdWK9MxW-J1_Vh-13" source="H3Hm-fYdWK9MxW-J1_Vh-84" edge="1">
          <mxGeometry width="50" height="50" relative="1" as="geometry">
            <mxPoint x="440" y="260" as="sourcePoint" />
            <mxPoint x="210" y="440" as="targetPoint" />
          </mxGeometry>
        </mxCell>
        <mxCell id="BxZqRP25bFnfQ59wk7_Y-7" value="" style="endArrow=classic;html=1;rounded=0;dashed=1;endFill=1;" parent="H3Hm-fYdWK9MxW-J1_Vh-13" source="H3Hm-fYdWK9MxW-J1_Vh-96" edge="1" target="n1FhphHMJy-kgxUUgLVC-2">
          <mxGeometry width="50" height="50" relative="1" as="geometry">
            <mxPoint x="670" y="680" as="sourcePoint" />
            <mxPoint x="210" y="620" as="targetPoint" />
          </mxGeometry>
        </mxCell>
        <mxCell id="BxZqRP25bFnfQ59wk7_Y-4" value="" style="endArrow=none;html=1;rounded=0;edgeStyle=elbowEdgeStyle;dashed=1;endFill=0;" parent="1" source="H3Hm-fYdWK9MxW-J1_Vh-98" edge="1">
          <mxGeometry width="50" height="50" relative="1" as="geometry">
            <mxPoint x="700" y="490" as="sourcePoint" />
            <mxPoint x="230" y="480" as="targetPoint" />
            <Array as="points">
              <mxPoint x="230" y="540" />
            </Array>
          </mxGeometry>
        </mxCell>
      </root>
    </mxGraphModel>
  </diagram>
</mxfile>
